<svg xmlns="http://www.w3.org/2000/svg" xmlns:xlink="http://www.w3.org/1999/xlink" width="17.63597mm" height="21.55507mm" viewBox="0 0 49.99173 61.101"><defs><clipPath id="clip-path"><circle cx="24.71244" cy="24.99586" r="24.99586" fill="none"/></clipPath></defs><title>gDv-pin-export-01-01</title><g id="Layer_2" data-name="Layer 2"><path d="M24.99586,61.09766C18.5193,45.4597.47052,45.89872,0,24.99586-.31067,11.19453,11.191,0,24.99586,0S50.30239,11.19453,49.99173,24.99586c-.47052,20.90286-18.5193,20.46383-24.99586,36.1018" fill="#ef3147"/></g><g id="Layer_1" data-name="Layer 1"><circle cx="24.99586" cy="24.99586" r="24.99586" fill="#ef3147"/><circle cx="24.99586" cy="24.99586" r="23.99603" fill="#ff7a37"/><circle cx="24.99586" cy="24.99586" r="22.99619" fill="#8ebfe5"/><path d="M23.01522,47.9066c-.02886-.00205.40551.028.53713.0401C23.37332,47.93334,23.1943,47.91933,23.01522,47.9066Zm-3.32064-.58127c.09844.21113.22472.09925-.38966-.06489a.51391.51391,0,0,1,.13132.02466c-.17452-.06012-.35025-.117-.52345-.17955C19.17354,47.16995,19.43432,47.25114,19.69458,47.32534Zm.27007.1096c.3247-.08568-.90838-.33406-1.25661-.636a1.73746,1.73746,0,0,1,.60809-.016c-.048.01169-.42115.02967-.41883.03439.04264.04448.286.12522.30414.15736a11.99,11.99,0,0,0,1.95749.67667c-.146.00389-.04407-.00281.01033.01459C20.767,47.60109,20.36369,47.52161,19.96466,47.43493Zm4.62567.55355c-.19453-.007-.38869-.0096-.58263-.02453a26.14927,26.14927,0,0,0,8.11639-1.11275c-.01976.00667-.23862.08513.00333.00609A28.548,28.548,0,0,1,24.59033,47.98848Zm-9.06051-3.01857a3.64564,3.64564,0,0,1,.68418.31609,4.85354,4.85354,0,0,1-2.03862-.72952c.28882.09441.57458.24026.85592.35813-.01921-.04874-.20642-.24709-.07533-.25483C15.15753,44.73175,15.33192,44.91138,15.52982,44.96991Zm1.17292-.29653c-.02921.06269.31931.2963-.39368.08348C16.39307,44.72857,16.67648,44.72972,16.70273,44.67337ZM46.43716,31.40271c-.06081.33132-.07983.99644-.20034.71454a10.606,10.606,0,0,1-1.89169,3.96025c-.011-1.818,1.633-3.53156,2.12316-5.19592A4.39007,4.39007,0,0,1,46.43716,31.40271Zm-35.203-7.2608c-.16877-.13544-.45789.1239-.20343-.29044C11.51674,23.70848,11.07478,24.014,11.23412,24.14191Zm-.8793-3.41524c-.08332-.01642-.3059.09409-.46962.03811C10.01608,20.35835,10.12778,20.68193,10.35482,20.72668ZM7.4242,20.31281c-.0098-.0257-.29942-.01827-.23481-.29786C7.61683,20.126,7.4305,20.32933,7.4242,20.31281ZM8.65434,19.758a1.29116,1.29116,0,0,1,.97974.69438c-.32889.08254-.62031.179-.90266.24832a2.71251,2.71251,0,0,1-.63626-.5649c.29195.05589.24691.11886.49986.10152C8.36816,19.80935,8.53777,19.88009,8.65434,19.758ZM7.37965,18.282c.29654.353.633.85645.92992,1.23629a1.57274,1.57274,0,0,1-.86847-.02052,1.80238,1.80238,0,0,0-.50234-1.28145,3.08285,3.08285,0,0,0-.68982.10366C6.74869,17.7802,6.88912,18.15168,7.37965,18.282Zm.58093-.26393c.00543-.17712-.106-.33751.05666-.57995C8.10721,17.64305,7.96784,17.78118,7.96058,18.01806Zm.33-1.07272Zm.175.03756Zm32.38631-3.47778c-.11711.24357.18165.346-.18452.43426C40.47336,13.68972,40.72634,13.76634,40.85194,13.50513Zm-2.15448.47689a1.23162,1.23162,0,0,0,.631.031C39.06309,14.36333,38.97775,14.05722,38.69745,13.982Zm-2.32816-.56357a1.63509,1.63509,0,0,0,.14146.573,1.92411,1.92411,0,0,1-.86423-.43882A1.51651,1.51651,0,0,0,36.36929,13.41845Zm-2.02444-.81486c.12445.2572.35731.32482.40391.67722q-.16953-.07094-.18881.11774C34.12206,13.01978,34.35032,12.80384,34.34486,12.60359Zm-.04871-.32486c-.06852.01344-.057.45278-.2725-.13506C34.2871,11.71491,34.082,12.32073,34.29614,12.27873Zm-19.50089-1.625c.07044.14416.61943-.007.15233.19661C14.685,10.66257,14.69211,10.44259,14.79525,10.6537Zm.86834-.72542c-.15918-.1277-.29732-.04678-.3944-.307C15.55391,9.61661,15.55763,9.84326,15.6636,9.92828ZM10.64033,7.03079c-.22223.18383-.446.36557-.66469.55357C10.19405,7.396,10.41807,7.21465,10.64033,7.03079Zm6.49889,2.57367c-.108.28854-.26768.33966.35627.49321-.07441.40563-.03564.5239-.53057.73827.06053-.15235.179-.16185.12815-.29684-.12582.08525-.37055.2936-.53573.2159l.23646-.12851a5.12044,5.12044,0,0,1-.86031-.17061,4.6255,4.6255,0,0,1,1.42016-1.1226C17.50972,9.47064,17.22965,9.43223,17.13922,9.60447Zm11.90424-.17669c-.29551.07485-.38847.2433-.7238.166C28.31025,8.663,28.94656,8.19407,29.04346,9.42777Zm3.6216-1.29988c-.10883.0485.144.37822-.25811.10406C32.25274,7.84376,32.5442,8.18175,32.66505,8.12789Zm-3.4782-.52237c.12879.40139.20777.11368.29039.71578,1.5803.837,1.93114,1.52089.00362,1.72247.161-.16621.28189-.27009.43924-.41469-.134-.04795-.4358.06266-.494-.14139.16669-.136.20418-.20615.00525-.4484l.34537.00552C29.17184,8.589,28.33581,8.15066,29.18685,7.60552ZM16.11646,6.01979Zm-.10032-.19105Zm.63665-.68484c-.00161.05713-.14741.411-.15577.518a4.25181,4.25181,0,0,1-.7049-.00483q.31292-.16279.01635-.14813C16.07634,5.38284,16.42506,5.23821,16.65279,5.14389Zm9.77852.666c.32981.95119-1.23543.66387-1.51318.37349l.3-.04482c-.06034-.04686-.29854-.06558-.35939-.11986A10.20609,10.20609,0,0,1,26.43131,5.80993Zm-8.50736-.7367c-.13238.09434.02-.14348.20811-.209C18.392,4.982,18.07078,4.96859,17.92395,5.07323Zm23.563,5.87788a3.34328,3.34328,0,0,0,1.38039,1.29771,13.11558,13.11558,0,0,0-1.23756-1.78772c.05.108.14657.23679.19425.34851-.8702-.71912-1.05692-1.25246-1.71509-1.67129A2.53929,2.53929,0,0,0,41.48694,10.95111Zm4.93357,5.68956a7.63264,7.63264,0,0,0-.65565-1.35952c-.3386.64787-.0082.36212-.61686,0a.798.798,0,0,0-.00247.34662,3.80079,3.80079,0,0,1-1.0719-1.032q-.00193.186-.15151.00806a8.66719,8.66719,0,0,0,1.17864,1.8899c-.12908-.12529-.12647-.38338-.17986-.52563.12808.248.30068.55394.39185.73519a3.56086,3.56086,0,0,0-.04-1.14591c1.10324,1.80825,1.9911,4.31389.37576,6.0074-.74328-2.34543-2.59183-3.87678-3.60177-5.90146.04322.2254.05471.51837.11414.728-.2175-.23809-.42549-.48969-.64461-.72714,1.38228,2.14639,3.58269,4.42118,4.39074,6.72128.2327-.379.62726-.63726.77406-1.07123.5953,3.11653-1.13241,5.69473-1.43574,8.53277a16.66691,16.66691,0,0,1-2.39668,6.42944c-.46346.87361-3.82993,4.9364-5.07611,3.96224-.46118-.36051.1668-5.85641.3643-6.7968a5.34177,5.34177,0,0,0,.00851-3.40537c-.2247-.7166-.4943-1.28178-.6628-1.94023-.17926-.70048.24533-1.0167-.34236-1.60974-.78523.51856-1.51084-.2916-2.49318-.27216-.96314.01906-2.37614,1.07341-3.413.88969-1.53485-.272-3.56558-2.77814-3.96132-4.02448.95327-.92755.03089-1.71158.1348-2.57828a5.31694,5.31694,0,0,1,1.06087-2.134c.27774-.37345.71015-.52536.92237-.87864.299-.49773.07516-.9531.35906-1.42017.65867-1.08363,1.05476-.73776,1.86581-1.08574a10.76933,10.76933,0,0,1,2.48371-.88634c1.59647-.24488.7007.31212,1.47762.77173.3446.20386,1.61575,1.15918,2.30606,1.064.38979-.05377.82137-.432.52867-.38337-.18487.03074.97637-.28114.94311-.269,1.53464-.55905,3.04561.39881,1.56381-2.18448-1.0652.83018-2.98986-.09023-1.77042-1.30681.666-.66445,1.545.21978,1.1722-.8911-.23562-.70206-1.3819-.29686-1.467-1.28895-.05642.65765-.23258.23661.17295.758a.34541.34541,0,0,0-.18246.33431c-.39139-.43428-.61774-.31308-1.02093-.55137a2.448,2.448,0,0,0,.89444,1.81358c-.3447.11347-.1454.09835-.28494.39776-.4432-.15851-.16-.08171-.63886-.07189l.25043.15919c-.23544.08724-.21116-.07556-.39844-.055.30352.29618.44044.61176.78165.90205l-.2477-.05342c.0581.15933.25306.29493.27276.51348a25.28194,25.28194,0,0,1-3.67418-2.71865.21436.21436,0,0,0-.32752.11344c.57613.88691,1.62013,1.02967,2.31783,1.633a.50751.50751,0,0,0-.43707-.16225,1.8283,1.8283,0,0,1,.1278.903c-.36351-1.30959-2.96529-2.32336-3.94154-1.38624-1.2392,1.18952-.14631,2.8836-2.8837,2.36189-.37544-.99782-.49886-1.82011.07355-2.35173.35571-.33036,1.285.41754,1.51375-.22969.21529-.60927-.967-1.29639-1.3055-1.43734a2.574,2.574,0,0,1,.74286-.03562l-.20452-.34255c1.04562.0122.82969-1.11372,1.70926-1.29657a1.257,1.257,0,0,1-.28789-1.193c.336,1.14129,1.23211.95343,2.27169.65729a5.52653,5.52653,0,0,0-.32169-.94875c.20534.034.20363.159.416.14049a2.11121,2.11121,0,0,0-.65311-.51707,2.8578,2.8578,0,0,1,.546-.19405C33.11,6.67115,32.554,5.67862,31.76017,5.4985c.08073.89026,2.558,4.30991-.25642,1.67471-1.01631,1.40141-1.56337-1.84823-1.129-2.42074.4125-.54368,2.033-.32979,2.9056.22869-.04352.00275-.56225.07891-.66284.09517a8.05161,8.05161,0,0,0,1.20035.45687c-.13779-.11411-.27318-.14628-.39433-.26423l.39408.06a4.70818,4.70818,0,0,0-.46338-.43918.34651.34651,0,0,1,.2564.02715c-.29444-.1565-.57365-.30087-.88374-.43125.30928.10737.50737.12829.8196.26031-.1135-.14146-.30276-.37612-.46161-.55381.01683-.00053.318.12535.30881.09549a.7908.7908,0,0,1-.18682-.22479l.24414.063a2.21789,2.21789,0,0,0-.57639-.24827,5.98888,5.98888,0,0,1,.69616.05457c-.63034-.20191-1.25144-.41988-1.87875-.66806a12.89935,12.89935,0,0,1,2.5442.84864,18.64184,18.64184,0,0,0-2.53861-.9346c.20484.05285.417.11094.61752.16429-.37591-.144-.44351-.06355-.363-.1779A27.78632,27.78632,0,0,0,28.86478,2.347a.53547.53547,0,0,0,.20435.02034c-.10781-.01831-.21494-.04117-.32263-.05973A24.11784,24.11784,0,0,1,46.42051,16.64066ZM17.19,4.27456ZM9.21712,8.267c.26153-.23849.52065-.47868.78869-.71-.15675.13947-.31354.27951-.46864.42082a22.49022,22.49022,0,0,1,8.53351-4.91064q-.34863.11754-.69575.23868a.66916.66916,0,0,1,.14295-.03653c-.25877.20974.26319-.09447-.17717.1041a.99564.99564,0,0,0,.2221-.0604,2.24524,2.24524,0,0,0-.44417.17582c.35077.01227.14269-.03709-.07054.04514a.12509.12509,0,0,0,.12979-.01913c-.337.19457-.5958.34775-.91264.52986.21982.05278.02183.07379-.08491.16985.197-.05359.39726-.10574.56778-.14809-.08587.183-.28056.11234-.30539.30118.10481.15907.3499-.10822.47263-.05627-.11178.10367-.28131.14973-.39135.25319.55911-.23415,1.11713-.46727,1.696-.70852-.36054.22227-.62931.45539-.99384.64375l.34621-.10134a3.51241,3.51241,0,0,0-.57621.40236c.35878-.1462.893-.24924,1.13864-.327-1.3518,1.11158-3.55413.71647-4.78825,2.29483.23.26021.08381.50179.41167.82565a5.05519,5.05519,0,0,0-.76366,1.13378c.80794-.74065,3.54426-3.32739,3.98483-2.21131a3.55427,3.55427,0,0,0-.42116.73834c.275-.18.66426-.26614.95836-.44822-.68366,1.21957.58884,1.7474-.35736,2.5159-.90437.73452-2.59654.2522-3.78453,1.0006a1.91683,1.91683,0,0,1,1.73789-.35526c-.71221.69206-.55036,1.18235.44218.63685-.263.62757-1.10137.732-1.83246.89473a4.13445,4.13445,0,0,1,.6761-.47634,2.08063,2.08063,0,0,0-1.938.90641c.11544-.01891.11679-.12237.14783-.01568a3.68279,3.68279,0,0,1-.9618.17522c-.0454-.00442.46406.02958.34826.071-.65578.10443-.39384.063-.97911.53941-.00413.00525.05012-.23035-.008-.21253a3.83928,3.83928,0,0,1-.529.74967c.09078-.21969.20223-.418.30265-.6689-.47741.94243-1.11261,1.16014-1.93186,2.0566-.76923.84173-.69544,1.85986-1.3565,2.73169a6.53732,6.53732,0,0,1,.16868-2.01873c-.40412-.245-.57766-.40327-.99819.04709-.9473-1.58764-2.48966,2.74365-2.3205,3.79855a4.08688,4.08688,0,0,1,1.50225-.849,5.85719,5.85719,0,0,1-.533,1.20822c.05795-.057-.31294.65794-.397.9412,1.43957-.143.29309,1.2576.48706,2.12863.50291,2.25828,1.68788.37269,2.92726.14453-.15386.39793-.1232.805-.26128,1.29652a5.53072,5.53072,0,0,1,.63655-1.13851c.40127.95069,1.27963,1.04264,2.26266.94587l-.27489.08156a14.97765,14.97765,0,0,0,2.02705,2.12867c.69147.52137,2.70323.915,1.7658,2.38886.2847.20994.619.54055.76356.64138a1.03966,1.03966,0,0,1,1.48464.67975c1.57245-.08273,4.14348.83435,3.63723,2.67973-.15641.57014-1.09674,1.07466-1.304,1.60616-.33681.86366.17171,1.72571-.45059,2.57179-.46667.63448-.76952.28654-1.34478.8198a3.11552,3.11552,0,0,0-.9033,1.26048c-.53569.9296-.87354,2.7709-2.29889,1.62859.95806.58905,1.1027,1.54026-.30759,1.271a4.01222,4.01222,0,0,0,.34277.50378,5.69687,5.69687,0,0,0-.62435.00134,6.48059,6.48059,0,0,0,.63794.44532c-.22951.284-.14251.17256-.00953.54591A5.14922,5.14922,0,0,0,15.124,44.662c-.048.052-.251-.1216-.33.02855l.19534.18a5.59425,5.59425,0,0,1-2.80031-2.3035l.28009.13139c-.17539-.19907-.35428-.42074-.51919-.60615l.20153.31237A12.26473,12.26473,0,0,1,9.94608,37.738a11.0448,11.0448,0,0,0-1.25136-3.43155,14.242,14.242,0,0,1-2.13561-2.95519c-.67581-1.46094-1.14156-2.85264-.86562-3.82745.37887-1.33846,1.20837-2.24108.5569-3.84219-.09482.21684-.2828.34255-.36814.60971A2.77857,2.77857,0,0,1,5.10309,22.907a.21326.21326,0,0,1-.057.20129c-.22483-1.64935-1.26992-2.39749-1.4862-3.96155-.26018-1.88149.90868-4.39733,1.84327-6.02887q-.07-.03791.05333-.13167a20.61317,20.61317,0,0,0-1.61427,3.46127A21.4845,21.4845,0,0,1,9.21712,8.267ZM18.31926,3.3112c-.08763.05058-.40258.12836-.04839.10485a2.70033,2.70033,0,0,0-.483.20067c.1983-.07039.416-.12243.61128-.18515a12.3865,12.3865,0,0,1-1.58206.7348c-.0939-.24088.08-.03375-.236-.24191A6.36778,6.36778,0,0,1,18.31926,3.3112Zm.19549.15764Zm1.15409.55908Zm-.61275-.18335c-.3512-.02656.22848.02381.43468-.01227-.14725.10948-.30684.17916-.45188.283a1.11048,1.11048,0,0,0,.4175-.057c.00762.24073-.04257.11561-.14878.29388.02759.34548.43281.10715-.24457.56025a3.2422,3.2422,0,0,0,.326.48893,6.40858,6.40858,0,0,0-.69462.35477.291.291,0,0,1-.00643-.34547c-.40506.58038-.43969.53287-.92077.5175-.02985.053.003.4337-.10474.46612-.4196-.44515-.29375-.28859-.34638-.80231-.07792-.00564-.33016.14214-.43007.02477.71216-.18407,1.58939-.47456,1.6832-1.15624a4.5972,4.5972,0,0,1-.57126-.23872A2.54888,2.54888,0,0,1,19.05609,3.84457Zm-.29155-.34843a3.54156,3.54156,0,0,1-.89567.3868C18.18843,3.59853,18.37989,3.63317,18.76454,3.49613Zm-.15632.27936c-.40773.34013.02973-.0889.50958-.16662C19.00137,3.72956,18.72845,3.67519,18.60822,3.77549Zm-.89337-.39783a10.63781,10.63781,0,0,1,1.17841-.39691A3.08532,3.08532,0,0,1,17.71485,3.37766Zm1.67651.09721Zm.50176-.28272a4.35634,4.35634,0,0,1-.71842.18527C19.42791,3.18349,19.58773,3.25728,19.89312,3.19215Zm-.35878-.10173a1.5565,1.5565,0,0,1-.725.089c.28808-.09563.42616-.11926.8129-.23368-.02266.01614-.38934.1938-.37721.20472C19.77147,2.98668,19.6132,2.90476,19.53434,3.09042Zm12.96146.73412a4.96268,4.96268,0,0,1-2.30533-.91575A14.21371,14.21371,0,0,0,32.4958,3.82453ZM20.13573,3.20835c-.0047.08223-.19415.18087-.34778.25974.00751.06139.35753.10077.41511.10888a1.34226,1.34226,0,0,1-.82739.0232A2.3865,2.3865,0,0,1,20.13573,3.20835Zm-.05486-.37508a2.89687,2.89687,0,0,1-.63273.06269A2.52586,2.52586,0,0,1,20.08088,2.83327Zm.23513.34122Zm-.21184-.25624Zm8.50021.49761ZM20.4612,2.84855Zm.00009.24158Zm.00864-.0848Zm8.16955-.691Zm-.906.93212c.32012.14931.43792.08857.67889.39178a6.52723,6.52723,0,0,1-1.10995-.32589C27.48869,3.23281,27.60525,3.3398,27.73345,3.24649Zm.15226-.14375c.01724-.02785.31464.19524-.35958.07658C27.60335,3.1384,27.86922,3.12938,27.88571,3.10274Zm.75176-.27248Zm.05922-.48045c.36157-.00349-.51155-.00816-.65433-.03577C28.26385,2.30393,28.47849,2.35191,28.69669,2.3498Zm-7.39562.6867a3.95288,3.95288,0,0,1-.63816.10452,3.98661,3.98661,0,0,1,1.07156-.31043A4.5679,4.5679,0,0,0,21.30108,3.03651Zm1.74322-.18489a5.79346,5.79346,0,0,1-2.96231.50579,11.97755,11.97755,0,0,1,1.6711-.34837A1.45534,1.45534,0,0,1,23.0443,2.85162Zm1.78864.09189c.12448-.10226.35678.17471-.2931.15123.53476.015.5727.08217,1.13776.10838-.17015.0828-.2911.08307-.44542.158a1.97487,1.97487,0,0,1,.21744.4656.52463.52463,0,0,0-.285.05944c.30771.42335.30447.36979-.1766.56435q.17562.05279.15509.206c.04773-.03975-.31563-.02514-.30463-.02724.025-.18393.428.36208.38945.319-.18527-.02755-.32907-.12556-.4933-.14949q.11928.18849-.12715.23487a3.85844,3.85844,0,0,0,.54559.02067c-.77681.30741-1.49914.48255-2.23943.84107-.34248.16586-1.40225,1.02143-1.56207,1.05127-1.52023.2838-1.4652-1.46.016-2.0051-.18578.00618-.37345.02055-.52.01671a3.248,3.248,0,0,1,.5701-.14533c.07907-.2215-.30776-.17217-.293-.251.64516-.503.64255-.61661-.0461-.86581.138-.13806.20343-.25507.47273-.164C21.78948,2.95157,23.88248,3.06885,24.83294,2.9435Z" fill="#c0dc74"/><g clip-path="url(#clip-path)"><path d="M14.0593,49.99172a5.32012,5.32012,0,0,1,.83646-2.16634c.05639-.09868.32895-.24436.39943-.32895.33834-.41353.39943-.82706.766-1.2124a6.46764,6.46764,0,0,1,3.30355-1.90788,3.1518,3.1518,0,0,0,.88815-.54041c.03289-.0188.047-.07989.05639-.12218a17.97813,17.97813,0,0,0,.35714-4.96708,6.07861,6.07861,0,0,1,.40413-2.75844,10.56863,10.56863,0,0,0,.5874-2.89942c.07049-.70488.13628-1.41447.21616-2.11935a.695.695,0,0,0-.141-.56391,2.12588,2.12588,0,0,1-.42293-1.89849.67474.67474,0,0,0-.0094-.21616.66782.66782,0,0,0-.19737.0329,3.74111,3.74111,0,0,1-.76127.38534c-.813.18327-1.69642.047-1.96428-.99624a5.06533,5.06533,0,0,1-.16447-1.12311c-.0282-1.1889-.03759-2.38251-.0188-3.57141.0141-.921.05639-1.84679.13158-2.76784a12.87181,12.87181,0,0,1,.29605-2.03476,2.67294,2.67294,0,0,1,1.16541-1.64943,2.241,2.241,0,0,1,1.54135-.38064,1.57091,1.57091,0,0,1,1.17011,1.01973.90383.90383,0,0,0,.55451.6062c.141.04229.235.22556.36654.31955a1.25461,1.25461,0,0,0,.30075.09868.98731.98731,0,0,0-.0282-.41353c-.12218-.23026-.343-.41353-.44173-.64849a1.48856,1.48856,0,0,1,.70488-2.18044c.19737-.09868.42763-.25376.6156-.21616a1.91182,1.91182,0,0,1,1.48025.82236.97939.97939,0,0,1,.20677.70958c-.0188.11278.13628.26316.235.38064.08928.10808.188.18327.06109.33834a.41525.41525,0,0,0-.0282.26786,5.019,5.019,0,0,1,.07989.64379.439.439,0,0,1-.188.28665.5872.5872,0,0,1-.29605.05169c-.36654.0094-.39.03289-.43233.39473a.26954.26954,0,0,1-.03759.13628c-.11278.17857-.05639.29605.11278.40413.33834.22086.36654.39.15507.76127a.24917.24917,0,0,0-.0235.17387,5.98537,5.98537,0,0,1,.22086.78947,13.4536,13.4536,0,0,1,.08928,1.37687c.0094.33365-.03759.66729-.0282,1.00093.0047.26786.07519.53571.07519.80357,0,.13628-.12218.27256-.15038.41353a2.90349,2.90349,0,0,0-.07989.79887,2.08026,2.08026,0,0,1-.46992,1.51785.538.538,0,0,0-.09868.37594,11.7962,11.7962,0,0,0,.24906,1.2124,1.05291,1.05291,0,0,0,.24436.38534c.90225,1.01973,1.7998,2.03946,2.71615,3.0451a1.05078,1.05078,0,0,1,.235,1.02443,22.88617,22.88617,0,0,0-.52631,4.69452,4.01643,4.01643,0,0,0,.13628,1.2265,1.65231,1.65231,0,0,0,.70018.98684,6.04981,6.04981,0,0,0,1.69642.87405,11.37021,11.37021,0,0,1,1.344.5968,3.19071,3.19071,0,0,0,.63439.14567,2.037,2.037,0,0,1,1.47086,1.02443c.17387.29605.343.5968.54041.87876a4.54434,4.54434,0,0,1,.41823,1.62123c.10338.41353.22556.82236.343,1.2312a2.471,2.471,0,0,1,.07049.24906,18.03592,18.03592,0,0,1,.25846,3.59021C28.89945,49.99172,21.15513,49.99172,14.0593,49.99172Zm7.71142-8.27533c.0141.16917.0235.343.04229.51222.05169.42763.54511.90225.93045.84586a4.77536,4.77536,0,0,0,1.7951-.50752c.80827-.47462,1.57894-1.01033,2.3919-1.485.24436-.141.31485-.21616.23966-.51691-.06579-.26316.094-.5686.10808-.86a12.95611,12.95611,0,0,0-.21616-3.71239,5.43823,5.43823,0,0,1-.10808-1.297c0-.40413.07049-.80827.10808-1.2124a.18.18,0,0,0-.0329-.13158,4.43944,4.43944,0,0,0-.6203-.63909c-.48872-.33365-1.01033-.6203-1.51785-.93045-.15507-.094-.25376-.094-.31015.10338-.094.35244-.20207.70488-.29605,1.062-.20207.76127-.39943,1.52255-.6109,2.28382a1.63379,1.63379,0,0,1-.21147.578,4.22129,4.22129,0,0,0-.968,2.02067c-.05169.32425-.10808.64849-.18327.968A10.9639,10.9639,0,0,0,21.77073,41.7164Z" fill="#4b4b4b"/><path d="M23.26038,17.15826a.9474.9474,0,0,0,.08459.15038l2.78664-1.60713c-.0235-.03759-.047-.07989-.07049-.11748a1.60684,1.60684,0,0,0-1.02913-.72368l-1.95488,1.12781A1.9738,1.9738,0,0,0,23.26038,17.15826Z" fill="#ce78c5"/></g></g></svg>